<svg id="Layer_1" data-name="Layer 1"
  xmlns="http://www.w3.org/2000/svg" viewBox="0 0 1572.1 504.58">
  <defs>
    <style>.cls-1{fill:#63af2d;}.cls-2{fill:#575756;}.cls-3{fill:#726f6f;}.cls-4{fill:#fff;}</style>
  </defs>
  <title>Turnos UNAHUR</title>
  <g id="New_Symbol" data-name="New Symbol">
    <path class="cls-1" d="M554,0V50.34H587.3V94.14H554v92.64q0,11.42,4.12,15.91t16.28,4.49a92.5,92.5,0,0,0,15.72-1.12v45.1a116.44,116.44,0,0,1-35.56,5.43q-32.56,0-48.1-15.35t-15.53-46.6V94.14H465.09V50.34h25.83V0Z"/>
    <path class="cls-1" d="M732.72,230.95q-20,25.64-54.09,25.64-33.31,0-50.44-19.37t-17.12-55.68V50.34h63.07V181.91q0,26,25.27,26,21.71,0,30.88-15.53v-142h63.44v202.5H734.59Z"/>
    <path class="cls-1" d="M950.75,107.42,930,105.93q-29.76,0-38.18,18.71v128.2H828.73V50.34h59.14l2.06,26q15.9-29.76,44.35-29.76a61.52,61.52,0,0,1,17.59,2.25Z"/>
    <path class="cls-1" d="M1031.41,50.34l2.06,23.77q21-27.51,57.83-27.51,31.62,0,47.26,18.9t16.19,56.89V252.84h-63.26V125q0-15.34-6.18-22.55t-22.46-7.21q-18.53,0-27.51,14.6v143H972.28V50.34Z"/>
    <path class="cls-1" d="M1181.7,149.72q0-30.32,11.79-54a84.33,84.33,0,0,1,33.87-36.4q22.08-12.73,51.84-12.73,45.48,0,71.68,28.17t26.2,76.64v2.25q0,47.35-26.29,75.14t-71.21,27.79q-43.23,0-69.43-25.92t-28.26-70.28Zm63.07,3.93q0,28.07,8.8,41.17t26,13.1q33.69,0,34.44-51.84v-6.36q0-54.46-34.81-54.46-31.63,0-34.25,47Z"/>
    <path class="cls-1" d="M1510.9,195.95q0-8-8.42-12.91t-32-10.11q-23.58-5.24-38.93-13.75t-23.39-20.68a49.37,49.37,0,0,1-8-27.89q0-27.88,23-45.95t60.26-18.06q40,0,64.38,18.15t24.33,47.72h-63.26q0-24.33-25.64-24.33-9.92,0-16.66,5.52a17.1,17.1,0,0,0-6.74,13.76q0,8.42,8.23,13.66t26.29,8.61a227.46,227.46,0,0,1,31.72,8q45.66,15.72,45.67,56.33,0,27.7-24.61,45.1t-63.72,17.41q-26,0-46.41-9.36t-31.82-25.45q-11.42-16.09-11.42-33.87h59q.37,14,9.36,20.49t23,6.46q12.91,0,19.37-5.24A16.76,16.76,0,0,0,1510.9,195.95Z"/>
    <path class="cls-1" d="M554,0V50.34H587.3V94.14H554v92.64q0,11.42,4.12,15.91t16.28,4.49a92.5,92.5,0,0,0,15.72-1.12v45.1a116.44,116.44,0,0,1-35.56,5.43q-32.56,0-48.1-15.35t-15.53-46.6V94.14H465.09V50.34h25.83V0Z"/>
    <path class="cls-1" d="M732.72,230.95q-20,25.64-54.09,25.64-33.31,0-50.44-19.37t-17.12-55.68V50.34h63.07V181.91q0,26,25.27,26,21.71,0,30.88-15.53v-142h63.44v202.5H734.59Z"/>
    <path class="cls-1" d="M950.75,107.42,930,105.93q-29.76,0-38.18,18.71v128.2H828.73V50.34h59.14l2.06,26q15.9-29.76,44.35-29.76a61.52,61.52,0,0,1,17.59,2.25Z"/>
    <path class="cls-1" d="M1031.41,50.34l2.06,23.77q21-27.51,57.83-27.51,31.62,0,47.26,18.9t16.19,56.89V252.84h-63.26V125q0-15.34-6.18-22.55t-22.46-7.21q-18.53,0-27.51,14.6v143H972.28V50.34Z"/>
    <path class="cls-1" d="M1181.7,149.72q0-30.32,11.79-54a84.33,84.33,0,0,1,33.87-36.4q22.08-12.73,51.84-12.73,45.48,0,71.68,28.17t26.2,76.64v2.25q0,47.35-26.29,75.14t-71.21,27.79q-43.23,0-69.43-25.92t-28.26-70.28Zm63.07,3.93q0,28.07,8.8,41.17t26,13.1q33.69,0,34.44-51.84v-6.36q0-54.46-34.81-54.46-31.63,0-34.25,47Z"/>
    <path class="cls-1" d="M1510.9,195.95q0-8-8.42-12.91t-32-10.11q-23.58-5.24-38.93-13.75t-23.39-20.68a49.37,49.37,0,0,1-8-27.89q0-27.88,23-45.95t60.26-18.06q40,0,64.38,18.15t24.33,47.72h-63.26q0-24.33-25.64-24.33-9.92,0-16.66,5.52a17.1,17.1,0,0,0-6.74,13.76q0,8.42,8.23,13.66t26.29,8.61a227.46,227.46,0,0,1,31.72,8q45.66,15.72,45.67,56.33,0,27.7-24.61,45.1t-63.72,17.41q-26,0-46.41-9.36t-31.82-25.45q-11.42-16.09-11.42-33.87h59q.37,14,9.36,20.49t23,6.46q12.91,0,19.37-5.24A16.76,16.76,0,0,0,1510.9,195.95Z"/>
    <path class="cls-2" d="M1058.84,313.18v72.23q-.07,15-9.45,24.59T1024,420.73l-3.72.15q-17.44,0-27.8-9.41t-10.51-25.9V313.18H995.8v71.94q0,11.53,6.35,17.91t18.09,6.38q11.89,0,18.2-6.35t6.31-17.88v-72Z"/>
    <path class="cls-2" d="M1162.6,419.42h-14.08L1095,337.55v81.87H1081V313.18H1095l53.63,82.23V313.18h13.94Z"/>
    <path class="cls-2" d="M1247.45,391.62h-44.51l-10,27.8H1178.5l40.57-106.23h12.26L1272,419.42h-14.37Zm-40.28-11.46h36.12l-18.09-49.69Z"/>
    <path class="cls-2" d="M1367.91,419.42h-14.08v-49.1h-53.55v49.1h-14V313.18h14v45.67h53.55V313.18h14.08Z"/>
    <path class="cls-2" d="M1467.58,313.18v72.23q-.07,15-9.45,24.59t-25.43,10.73l-3.72.15q-17.44,0-27.8-9.41t-10.51-25.9V313.18h13.86v71.94q0,11.53,6.35,17.91t18.09,6.38q11.89,0,18.2-6.35t6.31-17.88v-72Z"/>
    <path class="cls-2" d="M1528.65,376.44h-25v43h-14.08V313.18h35.17q18,0,27.62,8.17t9.67,23.79a28.6,28.6,0,0,1-5.36,17.29,32,32,0,0,1-14.92,11l25,45.09v.88h-15Zm-25-11.46h21.52q10.43,0,16.6-5.41t6.17-14.47q0-9.87-5.87-15.13t-17-5.34H1503.7Z"/>
    <path class="cls-3" d="M281.45,1.41h49.93a0,0,0,0,1,0,0V51.35a19.26,19.26,0,0,1-19.26,19.26H262.19a0,0,0,0,1,0,0V20.67A19.26,19.26,0,0,1,281.45,1.41Z"/>
    <rect class="cls-3" x="262.19" y="94.68" width="69.19" height="69.19"/>
    <path class="cls-3" d="M263.15,188h49a19.26,19.26,0,0,1,19.26,19.26v49.93a0,0,0,0,1,0,0H281.45a19.26,19.26,0,0,1-19.26-19.26v-49A1,1,0,0,1,263.15,188Z"/>
    <rect class="cls-3" x="168.92" y="1.41" width="69.19" height="69.19"/>
    <rect class="cls-3" x="168.92" y="94.68" width="69.19" height="69.19"/>
    <path class="cls-3" d="M94.91,1.41h49.93a0,0,0,0,1,0,0V51.35a19.26,19.26,0,0,1-19.26,19.26H75.64a0,0,0,0,1,0,0V20.67A19.26,19.26,0,0,1,94.91,1.41Z" transform="translate(146.25 -74.23) rotate(90)"/>
    <rect class="cls-3" x="168.92" y="187.96" width="69.19" height="69.19"/>
    <rect class="cls-1" x="14.33" y="94.68" width="69.19" height="69.19" transform="translate(-77.09 72.46) rotate(-45)"/>
    <path class="cls-3" d="M94.91,188h49.93a0,0,0,0,1,0,0v49.93a19.26,19.26,0,0,1-19.26,19.26H75.64a0,0,0,0,1,0,0V207.22A19.26,19.26,0,0,1,94.91,188Z"/>
    <path class="cls-4" d="M377.45,504.58c3.64,0,3.64-5.65,0-5.65s-3.64,5.65,0,5.65Z"/>
  </g>
</svg>
